<?xml version="1.0" encoding="utf-8"?>
<!-- Generator: Adobe Illustrator 26.0.2, SVG Export Plug-In . SVG Version: 6.00 Build 0)  -->
<svg version="1.1" id="Layer_1" xmlns="http://www.w3.org/2000/svg" xmlns:xlink="http://www.w3.org/1999/xlink" x="0px" y="0px"
	 viewBox="0 0 1920 1080" style="enable-background:new 0 0 1920 1080;" xml:space="preserve">
<style type="text/css">
	.st0{fill:#1F2937;}
</style>
<path class="st0" d="M0,638c31.1-0.7,78.1,1.2,132,16c156.6,43,182.8,143.2,286,151c103.5,7.8,112.8-90.4,246-108
	c128.5-16.9,153.7,69.3,305,76c158.1,7,169.6-85.5,343-92c158.7-5.9,198.4,69.7,345,57c116-10,206.1-67.4,263-113
	c0,151.7,0,303.3,0,455c-640,0-1280,0-1920,0C0,932.7,0,785.3,0,638z"/>
</svg>
